<svg width="22" height="18" viewBox="0 0 22 18" fill="none" xmlns="http://www.w3.org/2000/svg">
<path d="M18.8122 18C20.934 18 22 16.9929 22 14.969V3.03096C22 1.00706 20.934 0 18.8122 0L9.98985 0C8.80203 0 7.77665 0.293319 6.94416 1.14394L0.964467 7.12765C0.304569 7.78273 0 8.36936 0 8.98533C0 9.59153 0.294416 10.1879 0.964467 10.843L6.95432 16.7974C7.79695 17.6382 8.81218 17.9902 10 17.9902L18.8122 18ZM18.7919 16.4259H9.96954C9.19797 16.4259 8.72081 16.2499 8.18274 15.7219L2.2335 9.80663C1.88832 9.46442 1.7868 9.22977 1.7868 8.98533C1.7868 8.73112 1.89848 8.49647 2.2335 8.15426L8.17259 2.21945C8.70051 1.70125 9.19797 1.57414 9.95939 1.57414L18.7919 1.57414C19.8071 1.57414 20.3655 2.09234 20.3655 3.10918V14.8908C20.3655 15.9077 19.8071 16.4259 18.7919 16.4259ZM9.40102 13.1309C9.62437 13.1309 9.82741 13.0429 9.9797 12.8865L12.8629 10.0999L15.7462 12.8865C15.8985 13.0331 16.1015 13.1309 16.335 13.1309C16.7817 13.1309 17.1472 12.7691 17.1472 12.3389C17.1472 12.1141 17.0558 11.9283 16.9036 11.7816L14.0203 9.00489L16.9137 6.20858C17.0761 6.04237 17.1574 5.87615 17.1574 5.66105C17.1574 5.22108 16.7919 4.87887 16.3452 4.87887C16.132 4.87887 15.9492 4.94731 15.7767 5.11353L12.8629 7.90983L9.95939 5.1233C9.80711 4.96687 9.62437 4.89843 9.40102 4.89843C8.95432 4.89843 8.58883 5.23085 8.58883 5.67083C8.58883 5.88593 8.67005 6.0717 8.83249 6.21836L11.7157 9.00489L8.83249 11.7914C8.67005 11.9283 8.58883 12.1238 8.58883 12.3389C8.58883 12.7691 8.95432 13.1309 9.40102 13.1309Z" fill="#111111"/>
</svg>
